# xmcd CD Database Entry
#
# Track frame offsets:
# 150
# 19858
# 40418
# 60021
# 77282
# 99702
# 118998
# 139993
# 161824
# 181129
# 198744
# 218482
# 237093
# 255531
# 272579
# 288269
# 305805
# 321830
#
# Disc length: 4518 seconds
#
# Revision: 0
# Processed by: cddbd v1.4b41PL1 Copyright (c) Steve Scherf et al.
# Submitted via: tcd 2.0b
#
DISCID=fe11a412
DTITLE=Mariah Carey - Mariah Carey # 1's
DYEAR=1900
DGENRE=
TTITLE0=Sweetheart
TTITLE1=When You Believe (Mariah Carey and Whitney Houston)
TTITLE2=Whenever You Call
TTITLE3=My All
TTITLE4=Honey
TTITLE5=Always Be My Baby
TTITLE6=One Sweet Day (Mariah Carey and Boys II men)
TTITLE7=Fantasy (featuring O.D.B)
TTITLE8=Hero
TTITLE9=Dreamlover
TTITLE10=I'll be there (featuring Trey Lorenz)
TTITLE11=Emotions
TTITLE12=Someday
TTITLE13=Love Takes Time
TTITLE14=Vision Of Love
TTITLE15=I Still Believe
TTITLE16=Without You
TTITLE17=Do You Know Where You're Going To (Theme from Mahogany)
EXTD=
EXTT0=
EXTT1=
EXTT2=
EXTT3=
EXTT4=
EXTT5=
EXTT6=
EXTT7=
EXTT8=
EXTT9=
EXTT10=
EXTT11=
EXTT12=
EXTT13=
EXTT14=
EXTT15=
EXTT16=
EXTT17=
PLAYORDER=
